<svg class="svg-icon" style="width: 1em;height: 1em;vertical-align: middle;fill: currentColor;overflow: hidden;" viewBox="0 0 1024 1024" version="1.1" xmlns="http://www.w3.org/2000/svg"><path d="M251.107556 609.223111V490.382222c57.344 31.288889 155.335111 52.167111 266.666666 52.167111s209.322667-20.736 266.666667-52.167111v112.156445h53.333333V234.211556c0-64.398222-143.246222-116.622222-320-116.622223s-320 52.252444-320 116.622223v566.670222c0.256 46.762667 75.918222 87.011556 184.888889 105.585778v-41.073778c-78.762667-12.999111-131.669333-36.977778-131.669333-64.682667v-126.919111a433.180444 433.180444 0 0 0 131.669333 41.329778v-41.073778c-78.648889-13.169778-131.555556-37.233778-131.555555-64.824889z m266.666666-108.344889c-147.256889 0-266.666667-33.564444-266.666666-75.008v-127.146666c57.344 31.288889 155.335111 52.167111 266.666666 52.167111s209.322667-20.764444 266.666667-52.167111v127.146666c0 41.443556-119.409778 75.008-266.666667 75.008z m0-341.674666c147.256889 0 266.666667 33.592889 266.666667 75.008s-119.466667 75.008-266.666667 75.008S251.107556 275.626667 251.107556 234.211556s119.409778-75.008 266.666666-75.008z" fill="#33CACA" /><path d="M558.677333 759.893333a50.346667 50.346667 0 0 1 16.554667 19.427556 61.866667 61.866667 0 0 1 0 53.76 50.631111 50.631111 0 0 1-16.554667 19.456 39.338667 39.338667 0 0 1-22.755555 7.168h-98.019556v-28.757333h85.76a19.313778 19.313778 0 0 0 15.104-7.168 27.875556 27.875556 0 0 0 0-35.128889 19.256889 19.256889 0 0 0-15.104-7.196445h-47.416889a38.826667 38.826667 0 0 1-22.471111-7.054222 49.806222 49.806222 0 0 1-16.241778-19.171556 60.814222 60.814222 0 0 1 0-52.565333 49.976889 49.976889 0 0 1 16.241778-19.029333 38.599111 38.599111 0 0 1 22.471111-7.054222h95.971556v28.444444h-83.939556a18.375111 18.375111 0 0 0-14.421333 7.054222 25.144889 25.144889 0 0 0-6.001778 16.896 24.689778 24.689778 0 0 0 6.001778 16.782222 18.488889 18.488889 0 0 0 14.421333 6.912h47.644445a39.168 39.168 0 0 1 22.755555 7.224889z" fill="#33CACA" /><path d="M759.495111 817.948444a46.734222 46.734222 0 0 1-7.253333 25.6l6.570666 7.736889-17.237333 20.224-10.666667-12.515555a29.44 29.44 0 0 1-6.826666 0.796444h-78.734222a31.061333 31.061333 0 0 1-17.92-5.688889 39.139556 39.139556 0 0 1-12.942223-15.189333 46.449778 46.449778 0 0 1-4.750222-21.020444v-99.498667a46.364444 46.364444 0 0 1 4.750222-21.020445 38.912 38.912 0 0 1 12.942223-15.189333 31.061333 31.061333 0 0 1 17.92-5.688889h78.819555a30.776889 30.776889 0 0 1 17.720889 5.688889 38.855111 38.855111 0 0 1 12.913778 15.189333 46.392889 46.392889 0 0 1 4.778666 21.020445z m-36.295111-8.533333v-82.801778a22.442667 22.442667 0 0 0-5.347556-15.047111 16.583111 16.583111 0 0 0-13.027555-6.257778h-40.391111a16.64 16.64 0 0 0-12.913778 6.257778 22.129778 22.129778 0 0 0-5.461333 15.047111v83.057778a22.471111 22.471111 0 0 0 5.461333 15.303111 16.64 16.64 0 0 0 12.913778 6.257778h40.419555a8.192 8.192 0 0 0 2.474667-0.284444l-11.121778-13.027556 17.265778-19.911111z" fill="#33CACA" /><path d="M907.207111 859.704889h-64.199111a46.506667 46.506667 0 0 1-26.88-8.533333 59.278222 59.278222 0 0 1-19.512889-22.897778 69.404444 69.404444 0 0 1-7.168-31.288889v-120.405333h36.522667v120.32a35.783111 35.783111 0 0 0 8.533333 24.064 25.969778 25.969778 0 0 0 20.536889 9.984h52.167111z" fill="#33CACA" /></svg>